<?xml version="1.0" encoding="UTF-8" standalone="no"?>
<!DOCTYPE svg PUBLIC "-//W3C//DTD SVG 1.1//EN"
 "http://www.w3.org/Graphics/SVG/1.1/DTD/svg11.dtd">
<!-- Generated by graphviz version 2.47.0 (20210316.0004)
 -->
<!-- Title: dependencies Pages: 1 -->
<svg width="1428pt" height="284pt"
 viewBox="0.00 0.00 1428.00 284.00" xmlns="http://www.w3.org/2000/svg" xmlns:xlink="http://www.w3.org/1999/xlink">
<g id="graph0" class="graph" transform="scale(1 1) rotate(0) translate(4 280)">
<title>dependencies</title>
<polygon fill="white" stroke="transparent" points="-4,4 -4,-280 1424,-280 1424,4 -4,4"/>
<text text-anchor="start" x="689.01" y="-42.4" font-family="Times-12" font-weight="bold" font-size="14.00">Legend</text>
<polygon fill="#ffffb3" stroke="transparent" points="476,-10 476,-30 496,-30 496,-10 476,-10"/>
<text text-anchor="start" x="499.63" y="-15.4" font-family="Times-12" font-size="14.00"> &#160;Declarations</text>
<polygon fill="#8dd3c7" stroke="transparent" points="589,-10 589,-30 609,-30 609,-10 589,-10"/>
<text text-anchor="start" x="612.73" y="-15.4" font-family="Times-12" font-size="14.00"> &#160;Module</text>
<polygon fill="#80b1d3" stroke="transparent" points="675,-10 675,-30 695,-30 695,-10 675,-10"/>
<text text-anchor="start" x="698.78" y="-15.4" font-family="Times-12" font-size="14.00"> &#160;Bootstrap</text>
<polygon fill="#fdb462" stroke="transparent" points="772,-10 772,-30 792,-30 792,-10 772,-10"/>
<text text-anchor="start" x="795.67" y="-15.4" font-family="Times-12" font-size="14.00"> &#160;Providers</text>
<polygon fill="#fb8072" stroke="transparent" points="868,-10 868,-30 888,-30 888,-10 868,-10"/>
<text text-anchor="start" x="891.73" y="-15.4" font-family="Times-12" font-size="14.00"> &#160;Exports</text>
<g id="clust1" class="cluster">
<title>cluster_AppModule</title>
<polygon fill="none" stroke="black" stroke-dasharray="1,5" points="8,-70 8,-268 1412,-268 1412,-70 8,-70"/>
</g>
<g id="clust2" class="cluster">
<title>cluster_AppModule_declarations</title>
<polygon fill="none" stroke="black" points="338,-78 338,-130 1404,-130 1404,-78 338,-78"/>
</g>
<g id="clust11" class="cluster">
<title>cluster_AppModule_imports</title>
<polygon fill="none" stroke="black" points="186,-78 186,-130 330,-130 330,-78 186,-78"/>
</g>
<g id="clust13" class="cluster">
<title>cluster_AppModule_bootstrap</title>
<polygon fill="none" stroke="black" points="770,-208 770,-260 840,-260 840,-208 770,-208"/>
</g>
<g id="clust14" class="cluster">
<title>cluster_AppModule_providers</title>
<polygon fill="none" stroke="black" points="16,-78 16,-130 178,-130 178,-78 16,-78"/>
</g>
<!-- AdminComponent -->
<g id="node1" class="node">
<title>AdminComponent</title>
<polygon fill="#ffffb3" stroke="black" points="1396.22,-122 1275.78,-122 1275.78,-86 1396.22,-86 1396.22,-122"/>
<text text-anchor="middle" x="1336" y="-99.8" font-family="Times,serif" font-size="14.00">AdminComponent</text>
</g>
<!-- AppModule -->
<g id="node9" class="node">
<title>AppModule</title>
<polygon fill="#8dd3c7" stroke="black" points="846.66,-187 843.66,-191 822.66,-191 819.66,-187 763.34,-187 763.34,-151 846.66,-151 846.66,-187"/>
<text text-anchor="middle" x="805" y="-164.8" font-family="Times,serif" font-size="14.00">AppModule</text>
</g>
<!-- AdminComponent&#45;&gt;AppModule -->
<g id="edge1" class="edge">
<title>AdminComponent&#45;&gt;AppModule</title>
<path fill="none" stroke="black" d="M1336,-122.01C1336,-144.49 1336,-180 1336,-180 1336,-180 856.67,-180 856.67,-180"/>
<polygon fill="black" stroke="black" points="856.67,-176.5 846.67,-180 856.67,-183.5 856.67,-176.5"/>
</g>
<!-- App -->
<g id="node2" class="node">
<title>App</title>
<polygon fill="#ffffb3" stroke="black" points="1258,-122 1204,-122 1204,-86 1258,-86 1258,-122"/>
<text text-anchor="middle" x="1231" y="-99.8" font-family="Times,serif" font-size="14.00">App</text>
</g>
<!-- App&#45;&gt;AppModule -->
<g id="edge2" class="edge">
<title>App&#45;&gt;AppModule</title>
<path fill="none" stroke="black" d="M1231,-122.13C1231,-142.57 1231,-173 1231,-173 1231,-173 857.01,-173 857.01,-173"/>
<polygon fill="black" stroke="black" points="857.01,-169.5 847.01,-173 857.01,-176.5 857.01,-169.5"/>
</g>
<!-- BienvenidaComponent -->
<g id="node3" class="node">
<title>BienvenidaComponent</title>
<polygon fill="#ffffb3" stroke="black" points="1185.59,-122 1040.41,-122 1040.41,-86 1185.59,-86 1185.59,-122"/>
<text text-anchor="middle" x="1113" y="-99.8" font-family="Times,serif" font-size="14.00">BienvenidaComponent</text>
</g>
<!-- BienvenidaComponent&#45;&gt;AppModule -->
<g id="edge3" class="edge">
<title>BienvenidaComponent&#45;&gt;AppModule</title>
<path fill="none" stroke="black" d="M1113,-122.27C1113,-140.56 1113,-166 1113,-166 1113,-166 856.86,-166 856.86,-166"/>
<polygon fill="black" stroke="black" points="856.86,-162.5 846.86,-166 856.86,-169.5 856.86,-162.5"/>
</g>
<!-- Cotizacion -->
<g id="node4" class="node">
<title>Cotizacion</title>
<polygon fill="#ffffb3" stroke="black" points="1022.15,-122 945.85,-122 945.85,-86 1022.15,-86 1022.15,-122"/>
<text text-anchor="middle" x="984" y="-99.8" font-family="Times,serif" font-size="14.00">Cotizacion</text>
</g>
<!-- Cotizacion&#45;&gt;AppModule -->
<g id="edge4" class="edge">
<title>Cotizacion&#45;&gt;AppModule</title>
<path fill="none" stroke="black" d="M984,-122.01C984,-138.05 984,-159 984,-159 984,-159 856.97,-159 856.97,-159"/>
<polygon fill="black" stroke="black" points="856.97,-155.5 846.97,-159 856.97,-162.5 856.97,-155.5"/>
</g>
<!-- InicioComponent -->
<g id="node5" class="node">
<title>InicioComponent</title>
<polygon fill="#ffffb3" stroke="black" points="927.99,-122 814.01,-122 814.01,-86 927.99,-86 927.99,-122"/>
<text text-anchor="middle" x="871" y="-99.8" font-family="Times,serif" font-size="14.00">InicioComponent</text>
</g>
<!-- InicioComponent&#45;&gt;AppModule -->
<g id="edge5" class="edge">
<title>InicioComponent&#45;&gt;AppModule</title>
<path fill="none" stroke="black" d="M830.42,-122.11C830.42,-122.11 830.42,-140.99 830.42,-140.99"/>
<polygon fill="black" stroke="black" points="826.92,-140.99 830.42,-150.99 833.92,-140.99 826.92,-140.99"/>
</g>
<!-- LoginComponent -->
<g id="node6" class="node">
<title>LoginComponent</title>
<polygon fill="#ffffb3" stroke="black" points="796.28,-122 681.72,-122 681.72,-86 796.28,-86 796.28,-122"/>
<text text-anchor="middle" x="739" y="-99.8" font-family="Times,serif" font-size="14.00">LoginComponent</text>
</g>
<!-- LoginComponent&#45;&gt;AppModule -->
<g id="edge6" class="edge">
<title>LoginComponent&#45;&gt;AppModule</title>
<path fill="none" stroke="black" d="M779.78,-122.11C779.78,-122.11 779.78,-140.99 779.78,-140.99"/>
<polygon fill="black" stroke="black" points="776.28,-140.99 779.78,-150.99 783.28,-140.99 776.28,-140.99"/>
</g>
<!-- RegistroComponent -->
<g id="node7" class="node">
<title>RegistroComponent</title>
<polygon fill="#ffffb3" stroke="black" points="663.27,-122 534.73,-122 534.73,-86 663.27,-86 663.27,-122"/>
<text text-anchor="middle" x="599" y="-99.8" font-family="Times,serif" font-size="14.00">RegistroComponent</text>
</g>
<!-- RegistroComponent&#45;&gt;AppModule -->
<g id="edge7" class="edge">
<title>RegistroComponent&#45;&gt;AppModule</title>
<path fill="none" stroke="black" d="M599,-122.01C599,-138.05 599,-159 599,-159 599,-159 753.31,-159 753.31,-159"/>
<polygon fill="black" stroke="black" points="753.31,-162.5 763.31,-159 753.31,-155.5 753.31,-162.5"/>
</g>
<!-- VerificarCorreoComponent -->
<g id="node8" class="node">
<title>VerificarCorreoComponent</title>
<polygon fill="#ffffb3" stroke="black" points="516.22,-122 345.78,-122 345.78,-86 516.22,-86 516.22,-122"/>
<text text-anchor="middle" x="431" y="-99.8" font-family="Times,serif" font-size="14.00">VerificarCorreoComponent</text>
</g>
<!-- VerificarCorreoComponent&#45;&gt;AppModule -->
<g id="edge8" class="edge">
<title>VerificarCorreoComponent&#45;&gt;AppModule</title>
<path fill="none" stroke="black" d="M431,-122.27C431,-140.56 431,-166 431,-166 431,-166 753.19,-166 753.19,-166"/>
<polygon fill="black" stroke="black" points="753.19,-169.5 763.19,-166 753.19,-162.5 753.19,-169.5"/>
</g>
<!-- App  -->
<g id="node11" class="node">
<title>App </title>
<polygon fill="#80b1d3" stroke="black" points="832,-252 778,-252 778,-216 832,-216 832,-252"/>
<text text-anchor="middle" x="805" y="-229.8" font-family="Times,serif" font-size="14.00">App </text>
</g>
<!-- AppModule&#45;&gt;App  -->
<g id="edge10" class="edge">
<title>AppModule&#45;&gt;App </title>
<path fill="none" stroke="black" stroke-dasharray="1,5" d="M805,-187.11C805,-187.11 805,-205.99 805,-205.99"/>
<polygon fill="black" stroke="black" points="801.5,-205.99 805,-215.99 808.5,-205.99 801.5,-205.99"/>
</g>
<!-- AppRoutingModule -->
<g id="node10" class="node">
<title>AppRoutingModule</title>
<polygon fill="#8dd3c7" stroke="black" points="322.27,-122 319.27,-126 298.27,-126 295.27,-122 193.73,-122 193.73,-86 322.27,-86 322.27,-122"/>
<text text-anchor="middle" x="258" y="-99.8" font-family="Times,serif" font-size="14.00">AppRoutingModule</text>
</g>
<!-- AppRoutingModule&#45;&gt;AppModule -->
<g id="edge9" class="edge">
<title>AppRoutingModule&#45;&gt;AppModule</title>
<path fill="none" stroke="black" d="M258,-122.13C258,-142.57 258,-173 258,-173 258,-173 752.99,-173 752.99,-173"/>
<polygon fill="black" stroke="black" points="752.99,-176.5 762.99,-173 752.99,-169.5 752.99,-176.5"/>
</g>
<!-- AuthInterceptor -->
<g id="node12" class="node">
<title>AuthInterceptor</title>
<ellipse fill="#fdb462" stroke="black" cx="97" cy="-104" rx="72.91" ry="18"/>
<text text-anchor="middle" x="97" y="-99.8" font-family="Times,serif" font-size="14.00">AuthInterceptor</text>
</g>
<!-- AuthInterceptor&#45;&gt;AppModule -->
<g id="edge11" class="edge">
<title>AuthInterceptor&#45;&gt;AppModule</title>
<path fill="none" stroke="black" d="M97,-122.01C97,-144.49 97,-180 97,-180 97,-180 753.09,-180 753.09,-180"/>
<polygon fill="black" stroke="black" points="753.09,-183.5 763.09,-180 753.09,-176.5 753.09,-183.5"/>
</g>
</g>
</svg>
